<svg width="206" height="147" viewBox="0 0 206 147" fill="none" xmlns="http://www.w3.org/2000/svg">
<path d="M101.87 8.30619V0L81.5928 3.4202V9.52769L101.87 8.30619Z" fill="#F1592A"/>
<path d="M101.87 18.0782V9.52769L92.0977 11.2378V18.3225L101.87 18.0782Z" fill="#F1592A"/>
<path d="M90.8762 18.3225V11.4821L81.8371 13.1922V18.5668L90.8762 18.3225Z" fill="#F1592A"/>
<path d="M101.87 27.6896V19.2997L81.8371 22.2313V28.3388L101.87 27.6896Z" fill="#F1592A"/>
<path d="M101.87 37.3778V28.8274L92.0977 30.2932V37.3778H101.87Z" fill="#F1592A"/>
<path d="M90.8762 37.3778V30.5375L81.5928 32.0033V37.3778H90.8762Z" fill="#F1592A"/>
<path d="M50.0782 11.4821V9.28339L42.0163 10.7492V11.7264L50.0782 11.4821Z" fill="#F1592A"/>
<path d="M40.5505 11.9707V10.9935L32.4886 12.215L40.5505 11.9707Z" fill="#F1592A"/>
<path d="M50.3225 20.0326V18.5668L40.3062 20.5212L50.3225 20.0326Z" fill="#F1592A"/>
<path d="M50.3225 29.5603V27.3616L42.0163 28.5831V29.8046L50.3225 29.5603Z" fill="#F1592A"/>
<path d="M40.5505 29.8046V28.8274L32.2443 30.2932L40.5505 29.8046Z" fill="#F1592A"/>
<path d="M50.3225 38.1107V36.6449L40.0619 38.5993L50.3225 38.1107Z" fill="#F1592A"/>
<path d="M40.5505 47.8827V46.6612L32 48.127L40.5505 47.8827Z" fill="#F1592A"/>
<path d="M42.0163 47.8827V46.4169L60.0945 43.9739V47.6384L42.0163 47.8827Z" fill="#F1592A"/>
<path d="M61.5603 47.6384V43.7296L80.3713 41.2866V47.3941L61.5603 47.6384Z" fill="#F1592A"/>
<path d="M81.5928 47.3941V41.0423L101.87 38.355V47.1498L81.5928 47.3941Z" fill="#F1592A"/>
<path d="M101.87 56.6775V48.127L92.0977 49.3485V56.6775H101.87Z" fill="#F1592A"/>
<path d="M90.8762 56.6775V49.5928L71.3322 52.0358V56.6775H90.8762Z" fill="#F1592A"/>
<path d="M70.1107 56.6775V52.2801L51.544 54.7231V56.4332L70.1107 56.6775Z" fill="#F1592A"/>
<path d="M50.0782 56.4332V54.9674L40.0619 56.4332H50.0782Z" fill="#F1592A"/>
<path d="M50.3225 65.7166V63.5179L42.0163 64.4951V65.7166H50.3225Z" fill="#F1592A"/>
<path d="M40.5505 65.7166V64.7394L32 65.7166H40.5505Z" fill="#F1592A"/>
<path d="M101.87 66.2052V57.899L81.5928 60.0977V66.2052H101.87Z" fill="#F1592A"/>
<path d="M101.87 75.7329V67.4267L92.0977 68.6482V75.7329H101.87Z" fill="#F1592A"/>
<path d="M90.8762 75.7329V68.8925L81.5928 69.6254V75.7329H90.8762Z" fill="#F1592A"/>
<path d="M101.87 85.7492V77.1987L81.5928 78.9088V85.2606L101.87 85.7492Z" fill="#F1592A"/>
<path d="M101.87 95.2769V86.7264L92.0977 87.7036V94.7883L101.87 95.2769Z" fill="#F1592A"/>
<path d="M90.8762 94.7883V87.9479L81.5928 88.6808V94.2997L90.8762 94.7883Z" fill="#F1592A"/>
<path d="M101.87 105.049V96.7427L81.5928 97.9642V104.072L101.87 105.049Z" fill="#F1592A"/>
<path d="M50.3225 74.5114V73.0456L40.0619 74.5114H50.3225Z" fill="#F1592A"/>
<path d="M50.3225 84.0391V81.8404L42.0163 82.5733V83.7948L50.3225 84.0391Z" fill="#F1592A"/>
<path d="M40.5505 83.5505V82.8176L32 83.5505H40.5505Z" fill="#F1592A"/>
<path d="M50.3225 92.8339V91.3681L40.0619 92.3453L50.3225 92.8339Z" fill="#F1592A"/>
<path d="M50.3225 102.362V99.9186L42.0163 100.407V101.873L50.3225 102.362Z" fill="#F1592A"/>
<path d="M40.5505 101.629V100.651L32 101.14L40.5505 101.629Z" fill="#F1592A"/>
<path d="M103.091 8.30619V0L112.863 1.7101V8.79479L103.091 8.30619Z" fill="#181818"/>
<path d="M114.085 9.03909V1.9544L134.117 5.61889V10.0163L114.085 9.03909Z" fill="#181818"/>
<path d="M135.339 10.0163V5.86319L154.394 9.52769V10.9935L135.339 10.0163Z" fill="#181818"/>
<path d="M155.616 10.9935V9.77199L165.632 11.4821L155.616 10.9935Z" fill="#181818"/>
<path d="M103.091 18.0782V9.52769L123.612 12.9479V19.0554L103.091 18.0782Z" fill="#181818"/>
<path d="M124.834 19.0554V13.1922L144.378 16.3681V20.0326L124.834 19.0554Z" fill="#181818"/>
<path d="M145.599 20.0326V16.6124L164.166 19.7883V21.0098L145.599 20.0326Z" fill="#181818"/>
<path d="M165.388 21.0098V20.0326L174.182 21.4984L165.388 21.0098Z" fill="#181818"/>
<path d="M103.091 27.6475V19.2997L112.863 20.7655V28.0945L103.091 27.6475Z" fill="#181818"/>
<path d="M114.085 28.2284V21.0098L123.612 22.2313V28.5831L114.085 28.2284Z" fill="#181818"/>
<path d="M155.616 30.0489V27.1173L173.694 29.8046V30.7818L155.616 30.0489Z" fill="#181818"/>
<path d="M175.16 30.7818V30.0489L182 31.0261L175.16 30.7818Z" fill="#181818"/>
<path d="M165.388 39.0879V37.8664L174.427 39.3322L165.388 39.0879Z" fill="#181818"/>
<path d="M165.388 48.3713V46.4169L173.694 47.6384V48.6156L165.388 48.3713Z" fill="#181818"/>
<path d="M175.16 48.6156V47.8827L182 48.6156H175.16Z" fill="#181818"/>
<path d="M165.388 56.9218V55.7003L174.37 56.9218H165.388Z" fill="#181818"/>
<path d="M165.388 66.2052V64.2508L173.694 65.228V66.2052H165.388Z" fill="#181818"/>
<path d="M175.16 66.2052V65.4723L181.756 66.2052H175.16Z" fill="#181818"/>
<path d="M165.388 75V73.7785L174.427 74.7557L165.388 75Z" fill="#181818"/>
<path d="M155.616 84.5277V81.3518L173.694 83.0619V84.0391L155.616 84.5277Z" fill="#181818"/>
<path d="M175.16 83.7948V83.3062L182 83.5505L175.16 83.7948Z" fill="#181818"/>
<path d="M103.091 37.3778V28.8274L123.612 31.759V37.8664L103.091 37.3778Z" fill="#181818"/>
<path d="M103.091 47.1498V38.355L112.863 39.8208V47.1498H103.091Z" fill="#181818"/>
<path d="M114.085 47.1498V40.0651L123.612 41.0423V47.3941L114.085 47.1498Z" fill="#181818"/>
<path d="M103.091 56.6128V48.127L123.612 50.57V56.6128H103.091Z" fill="#181818"/>
<path d="M103.091 66.2052V57.899L112.863 59.1205V66.2052H103.091Z" fill="#181818"/>
<path d="M114.085 66.2052V59.3648L123.612 60.0977V66.2052H114.085Z" fill="#181818"/>
<path d="M103.091 75.7329V67.4267L123.612 69.6254V75.7329H103.091Z" fill="#181818"/>
<path d="M103.091 85.7492V77.1987L112.863 78.1759V85.5049L103.091 85.7492Z" fill="#181818"/>
<path d="M114.085 85.2606V78.4202L123.612 79.1531V85.0163L114.085 85.2606Z" fill="#181818"/>
<path d="M103.091 95.2769V86.7264L123.612 88.4365V94.544L103.091 95.2769Z" fill="#181818"/>
<path d="M124.834 94.2997V88.6808L144.378 90.1466V93.5668L124.834 94.2997Z" fill="#181818"/>
<path d="M145.844 93.3225V90.3909L163.922 91.8567V92.8339L145.844 93.3225Z" fill="#181818"/>
<path d="M165.388 92.8339V91.8567L174.427 92.3453L165.388 92.8339Z" fill="#181818"/>
<path d="M103.091 105.049V96.7427L112.863 97.3069V104.316L103.091 105.049Z" fill="#181818"/>
<path d="M114.075 104.262V97.3069L133.873 98.9414V103.094L114.075 104.262Z" fill="#181818"/>
<path d="M135.339 103.094V99.1857L154.15 100.407V102.117L135.339 103.094Z" fill="#181818"/>
<path d="M155.86 101.873V100.651L165.388 101.14L155.86 101.873Z" fill="#181818"/>
<path d="M2 128V113.3H5.3V119.4H15.1V113.3H18.4V128H15.1V121.8H5.3V128H2ZM25.9202 128V115.064H28.8242V128H25.9202ZM39.45 128C38.4087 128 37.5947 127.853 37.008 127.56C36.4213 127.267 36.0107 126.827 35.776 126.24C35.5413 125.653 35.424 124.927 35.424 124.062V119.156C35.424 117.748 35.7393 116.714 36.37 116.054C37.0007 115.379 38.0273 115.042 39.45 115.042H46.072C47.084 115.042 47.854 115.101 48.382 115.218C48.9247 115.321 49.196 115.431 49.196 115.548L48.756 117.374C48.5067 117.33 47.766 117.286 46.534 117.242C45.3167 117.183 43.542 117.154 41.21 117.154H40.088C38.9147 117.154 38.328 117.675 38.328 118.716V124.326C38.328 124.825 38.4527 125.213 38.702 125.492C38.966 125.756 39.428 125.888 40.088 125.888H40.99C42.398 125.888 43.586 125.881 44.554 125.866C45.522 125.837 46.3213 125.815 46.952 125.8V122.808L45.632 122.83L42.75 123.05V120.894H49.834V127.076L50.054 127.538C50.054 127.655 49.746 127.765 49.13 127.868C48.514 127.956 47.4727 128 46.006 128H39.45ZM56.4323 128V115.064H59.3363V120.432H67.9603V115.064H70.8643V128H67.9603V122.544H59.3363V128H56.4323ZM86.3172 128V115.3L86.0672 113.3H97.6672C99.0172 113.3 100.051 113.467 100.767 113.8C101.501 114.133 102.009 114.633 102.292 115.3C102.576 115.95 102.717 116.767 102.717 117.75V123.525C102.717 124.525 102.576 125.358 102.292 126.025C102.026 126.675 101.526 127.167 100.792 127.5C100.076 127.833 99.0339 128 97.6672 128H86.3172ZM89.6172 125.6H97.4672C98.7505 125.6 99.4005 125.008 99.4172 123.825V117.45C99.4172 116.967 99.2755 116.558 98.9922 116.225C98.7089 115.875 98.2005 115.7 97.4672 115.7H89.6172V125.6ZM109.719 128V115.064H123.403V117.176H112.623V120.212H120.851V122.39H112.623V125.888H123.491L124.371 127.758C124.371 127.817 124.173 127.875 123.777 127.934C123.381 127.978 122.699 128 121.731 128H109.719ZM132.327 128C131.329 128 130.596 127.956 130.127 127.868C129.657 127.78 129.423 127.677 129.423 127.56L130.303 125.646C130.64 125.705 131.476 125.763 132.811 125.822C134.16 125.866 136.008 125.888 138.355 125.888H138.773C139.403 125.888 139.851 125.778 140.115 125.558C140.379 125.323 140.511 124.935 140.511 124.392V123.952C140.511 123.439 140.401 123.072 140.181 122.852C139.975 122.632 139.506 122.522 138.773 122.522H133.669C132.187 122.522 131.109 122.251 130.435 121.708C129.76 121.151 129.423 120.249 129.423 119.002V118.65C129.423 118.005 129.54 117.411 129.775 116.868C130.024 116.325 130.442 115.893 131.029 115.57C131.615 115.233 132.422 115.064 133.449 115.064H139.433C140.43 115.064 141.237 115.115 141.853 115.218C142.469 115.321 142.777 115.431 142.777 115.548L142.337 117.396C141.955 117.352 141.09 117.308 139.741 117.264C138.391 117.205 136.58 117.176 134.307 117.176L134.065 117.154C133.39 117.154 132.935 117.293 132.701 117.572C132.466 117.836 132.341 118.173 132.327 118.584V118.958C132.327 119.442 132.459 119.809 132.723 120.058C133.001 120.293 133.456 120.41 134.087 120.41H138.971C139.909 120.41 140.709 120.505 141.369 120.696C142.029 120.887 142.535 121.239 142.887 121.752C143.239 122.251 143.415 122.991 143.415 123.974V124.326C143.415 125.426 143.129 126.313 142.557 126.988C141.999 127.663 141.024 128 139.631 128H132.327ZM149.791 128V115.064H163.475V117.176H152.695V120.212H160.923V122.39H152.695V125.888H163.563L164.443 127.758C164.443 127.817 164.245 127.875 163.849 127.934C163.453 127.978 162.771 128 161.803 128H149.791ZM183.993 128.22C183.407 128.22 182.827 128.132 182.255 127.956C181.698 127.765 181.06 127.311 180.341 126.592L178.757 125.008C178.112 124.348 177.401 123.864 176.623 123.556C175.861 123.248 174.9 123.094 173.741 123.094H173.059V128H170.155V116.824L169.935 115.042H179.681C180.62 115.042 181.353 115.167 181.881 115.416C182.424 115.665 182.82 115.995 183.069 116.406C183.333 116.802 183.502 117.227 183.575 117.682C183.649 118.137 183.685 118.569 183.685 118.98V119.398C183.685 119.721 183.641 120.08 183.553 120.476C183.465 120.872 183.297 121.261 183.047 121.642C182.798 122.023 182.439 122.346 181.969 122.61C181.515 122.874 180.913 123.028 180.165 123.072C180.356 123.175 180.598 123.336 180.891 123.556C181.185 123.761 181.485 123.989 181.793 124.238C182.116 124.487 182.409 124.715 182.673 124.92C182.937 125.125 183.143 125.272 183.289 125.36C183.817 125.668 184.287 125.881 184.697 125.998C185.108 126.115 185.445 126.181 185.709 126.196C185.973 126.211 186.127 126.218 186.171 126.218L185.731 128C185.599 128.044 185.379 128.088 185.071 128.132C184.763 128.191 184.404 128.22 183.993 128.22ZM176.359 121.092C176.917 121.092 177.415 121.085 177.855 121.07C178.295 121.041 178.691 121.011 179.043 120.982C179.689 120.909 180.136 120.733 180.385 120.454C180.649 120.161 180.781 119.787 180.781 119.332V118.826C180.781 118.357 180.657 117.961 180.407 117.638C180.158 117.315 179.711 117.154 179.065 117.154H173.059V120.982C173.705 121.026 174.299 121.055 174.841 121.07C175.384 121.085 175.89 121.092 176.359 121.092ZM194.995 128L194.973 117.154H189.253V115.042H203.641V117.154H197.899V128H194.995Z" fill="#F1592A"/>
<path d="M22.066 143.14C21.6927 143.14 21.324 143.084 20.96 142.972C20.6053 142.851 20.1993 142.561 19.742 142.104L18.734 141.096C18.3233 140.676 17.8707 140.368 17.376 140.172C16.8907 139.976 16.2793 139.878 15.542 139.878H15.108V143H13.26V135.888L13.12 134.754H19.322C19.9193 134.754 20.386 134.833 20.722 134.992C21.0673 135.151 21.3193 135.361 21.478 135.622C21.646 135.874 21.7533 136.145 21.8 136.434C21.8467 136.723 21.87 136.999 21.87 137.26V137.526C21.87 137.731 21.842 137.96 21.786 138.212C21.73 138.464 21.6227 138.711 21.464 138.954C21.3053 139.197 21.0767 139.402 20.778 139.57C20.4887 139.738 20.106 139.836 19.63 139.864C19.7513 139.929 19.9053 140.032 20.092 140.172C20.2787 140.303 20.47 140.447 20.666 140.606C20.8713 140.765 21.058 140.909 21.226 141.04C21.394 141.171 21.5247 141.264 21.618 141.32C21.954 141.516 22.2527 141.651 22.514 141.726C22.7753 141.801 22.99 141.843 23.158 141.852C23.326 141.861 23.424 141.866 23.452 141.866L23.172 143C23.088 143.028 22.948 143.056 22.752 143.084C22.556 143.121 22.3273 143.14 22.066 143.14ZM17.208 138.604C17.5627 138.604 17.88 138.599 18.16 138.59C18.44 138.571 18.692 138.553 18.916 138.534C19.3267 138.487 19.6113 138.375 19.77 138.198C19.938 138.011 20.022 137.773 20.022 137.484V137.162C20.022 136.863 19.9427 136.611 19.784 136.406C19.6253 136.201 19.3407 136.098 18.93 136.098H15.108V138.534C15.5187 138.562 15.8967 138.581 16.242 138.59C16.5873 138.599 16.9093 138.604 17.208 138.604ZM31.7138 143V134.768H40.4218V136.112H33.5618V138.044H38.7978V139.43H33.5618V141.656H40.4778L41.0378 142.846C41.0378 142.883 40.9118 142.921 40.6598 142.958C40.4078 142.986 39.9738 143 39.3578 143H31.7138ZM49.5725 143V135.888L49.4325 134.768H51.4485L56.2085 139.752L56.7545 140.508H56.9085V134.768H58.7565V143H56.9785L52.1065 137.932L51.5605 137.274H51.4205V143H49.5725ZM70.4209 143C69.7676 143 69.2542 142.907 68.8809 142.72C68.5076 142.533 68.2416 142.253 68.0829 141.88C67.9336 141.507 67.8589 141.045 67.8589 140.494V137.26C67.8589 136.719 67.9336 136.266 68.0829 135.902C68.2322 135.529 68.4936 135.249 68.8669 135.062C69.2402 134.866 69.7582 134.768 70.4209 134.768H74.5089C75.1622 134.768 75.6709 134.866 76.0349 135.062C76.4082 135.249 76.6696 135.529 76.8189 135.902C76.9776 136.266 77.0569 136.719 77.0569 137.26V140.494C77.0569 141.315 76.8749 141.941 76.5109 142.37C76.1469 142.79 75.4796 143 74.5089 143H70.4209ZM70.8269 141.656H74.1169C74.4622 141.656 74.7282 141.567 74.9149 141.39C75.1109 141.213 75.2089 140.97 75.2089 140.662V137.092C75.2089 136.821 75.1109 136.593 74.9149 136.406C74.7189 136.21 74.4529 136.112 74.1169 136.112H70.8269C70.4909 136.112 70.2202 136.201 70.0149 136.378C69.8096 136.555 69.7069 136.793 69.7069 137.092V140.662C69.7069 140.979 69.8049 141.227 70.0009 141.404C70.2062 141.572 70.4816 141.656 70.8269 141.656ZM88.8077 143L84.9017 134.782H86.8617L89.4937 140.452L89.8717 141.46H89.9977L90.3617 140.452L93.0217 134.782H94.9257L94.7017 135.622L91.0477 143H88.8077ZM100.566 143L104.668 134.768H107.426L111.514 143H109.358L108.532 141.222H103.52L102.61 143H100.566ZM104.024 139.85H108.014L106.096 136.028H105.956L104.024 139.85ZM120.77 143L120.756 136.098H117.116V134.754H126.272V136.098H122.618V143H120.77ZM134.677 143V134.768H136.525V143H134.677ZM148.187 143C147.533 143 147.02 142.907 146.647 142.72C146.273 142.533 146.007 142.253 145.849 141.88C145.699 141.507 145.625 141.045 145.625 140.494V137.26C145.625 136.719 145.699 136.266 145.849 135.902C145.998 135.529 146.259 135.249 146.633 135.062C147.006 134.866 147.524 134.768 148.187 134.768H152.275C152.928 134.768 153.437 134.866 153.801 135.062C154.174 135.249 154.435 135.529 154.585 135.902C154.743 136.266 154.823 136.719 154.823 137.26V140.494C154.823 141.315 154.641 141.941 154.277 142.37C153.913 142.79 153.245 143 152.275 143H148.187ZM148.593 141.656H151.883C152.228 141.656 152.494 141.567 152.681 141.39C152.877 141.213 152.975 140.97 152.975 140.662V137.092C152.975 136.821 152.877 136.593 152.681 136.406C152.485 136.21 152.219 136.112 151.883 136.112H148.593C148.257 136.112 147.986 136.201 147.781 136.378C147.575 136.555 147.473 136.793 147.473 137.092V140.662C147.473 140.979 147.571 141.227 147.767 141.404C147.972 141.572 148.247 141.656 148.593 141.656ZM164.061 143V135.888L163.921 134.768H165.937L170.697 139.752L171.243 140.508H171.397V134.768H173.245V143H171.467L166.595 137.932L166.049 137.274H165.909V143H164.061ZM184.055 143C183.421 143 182.954 142.972 182.655 142.916C182.357 142.86 182.207 142.795 182.207 142.72L182.767 141.502C182.982 141.539 183.514 141.577 184.363 141.614C185.222 141.642 186.398 141.656 187.891 141.656H188.157C188.559 141.656 188.843 141.586 189.011 141.446C189.179 141.297 189.263 141.049 189.263 140.704V140.424C189.263 140.097 189.193 139.864 189.053 139.724C188.923 139.584 188.624 139.514 188.157 139.514H184.909C183.967 139.514 183.281 139.341 182.851 138.996C182.422 138.641 182.207 138.067 182.207 137.274V137.05C182.207 136.639 182.282 136.261 182.431 135.916C182.59 135.571 182.856 135.295 183.229 135.09C183.603 134.875 184.116 134.768 184.769 134.768H188.577C189.212 134.768 189.725 134.801 190.117 134.866C190.509 134.931 190.705 135.001 190.705 135.076L190.425 136.252C190.183 136.224 189.632 136.196 188.773 136.168C187.915 136.131 186.762 136.112 185.315 136.112L185.161 136.098C184.732 136.098 184.443 136.187 184.293 136.364C184.144 136.532 184.065 136.747 184.055 137.008V137.246C184.055 137.554 184.139 137.787 184.307 137.946C184.485 138.095 184.774 138.17 185.175 138.17H188.283C188.881 138.17 189.389 138.231 189.809 138.352C190.229 138.473 190.551 138.697 190.775 139.024C190.999 139.341 191.111 139.813 191.111 140.438V140.662C191.111 141.362 190.929 141.927 190.565 142.356C190.211 142.785 189.59 143 188.703 143H184.055Z" fill="#181818"/>
</svg>
